<svg width="158" height="157" viewBox="0 0 158 157" fill="none" xmlns="http://www.w3.org/2000/svg">
<path fill-rule="evenodd" clip-rule="evenodd" d="M55.5625 3C51.9381 3 49 5.83194 49 9.3253C49 12.8187 51.9381 15.6506 55.5625 15.6506H102.438C106.062 15.6506 109 12.8187 109 9.3253C109 5.83194 106.062 3 102.438 3H55.5625ZM79 153.964C119.651 153.964 154.625 126.445 154.625 90.1988C154.625 56.3704 124.162 30.1442 87.0513 26.7956L87.1515 19.768L72.0859 19.5712L71.9842 26.7082C34.4062 29.6578 3.375 56.0563 3.375 90.1988C3.375 126.445 38.3485 153.964 79 153.964ZM140.846 108.151C143.298 102.505 144.625 96.4532 144.625 90.1988C144.625 68.7053 128.948 49.6111 105.855 41.1124C126.846 50.5278 141.403 70.2585 142.76 91.5887C143.127 97.35 142.442 102.918 140.846 108.151ZM83.8652 36.5777C82.2609 36.4823 80.6385 36.4337 79 36.4337C42.0679 36.4337 13.375 61.1206 13.375 90.1988C13.375 96.5537 14.7454 102.699 17.2727 108.422L78.0625 91.5887L83.8652 36.5777Z" fill="black"/>
<path d="M87.0513 26.7956L84.5515 26.7599L84.5185 29.0772L86.8266 29.2855L87.0513 26.7956ZM87.1515 19.768L89.6512 19.8036L89.6869 17.3009L87.1841 17.2682L87.1515 19.768ZM72.0859 19.5712L72.1186 17.0714L69.6218 17.0388L69.5862 19.5355L72.0859 19.5712ZM71.9842 26.7082L72.1798 29.2006L74.4514 29.0222L74.4839 26.7439L71.9842 26.7082ZM140.846 108.151L138.455 107.421L143.139 109.146L140.846 108.151ZM105.855 41.1124L106.719 38.7663L104.832 43.3935L105.855 41.1124ZM142.76 91.5887L140.265 91.7474L140.265 91.7474L142.76 91.5887ZM83.8652 36.5777L86.3514 36.84L86.6259 34.2375L84.0136 34.0822L83.8652 36.5777ZM17.2727 108.422L14.9858 109.432L15.8583 111.408L17.9399 110.832L17.2727 108.422ZM78.0625 91.5887L78.7297 93.998L80.3701 93.5438L80.5487 91.851L78.0625 91.5887ZM51.5 9.3253C51.5 7.2986 53.2313 5.5 55.5625 5.5V0.5C50.645 0.5 46.5 4.36528 46.5 9.3253H51.5ZM55.5625 13.1506C53.2313 13.1506 51.5 11.352 51.5 9.3253H46.5C46.5 14.2853 50.645 18.1506 55.5625 18.1506V13.1506ZM102.438 13.1506H55.5625V18.1506H102.438V13.1506ZM106.5 9.3253C106.5 11.352 104.769 13.1506 102.438 13.1506V18.1506C107.355 18.1506 111.5 14.2853 111.5 9.3253H106.5ZM102.438 5.5C104.769 5.5 106.5 7.2986 106.5 9.3253H111.5C111.5 4.36528 107.355 0.5 102.438 0.5V5.5ZM55.5625 5.5H102.438V0.5H55.5625V5.5ZM152.125 90.1988C152.125 124.637 118.741 151.464 79 151.464V156.464C120.562 156.464 157.125 128.254 157.125 90.1988H152.125ZM86.8266 29.2855C123.072 32.556 152.125 58.049 152.125 90.1988H157.125C157.125 54.6919 125.252 27.7324 87.2759 24.3057L86.8266 29.2855ZM84.6517 19.7323L84.5515 26.7599L89.551 26.8312L89.6512 19.8036L84.6517 19.7323ZM72.0533 22.071L87.1188 22.2677L87.1841 17.2682L72.1186 17.0714L72.0533 22.071ZM74.4839 26.7439L74.5857 19.6068L69.5862 19.5355L69.4844 26.6726L74.4839 26.7439ZM5.875 90.1988C5.875 57.7516 35.4732 32.0818 72.1798 29.2006L71.7885 24.2159C33.3391 27.2339 0.875 54.361 0.875 90.1988H5.875ZM79 151.464C39.2588 151.464 5.875 124.637 5.875 90.1988H0.875C0.875 128.254 37.4382 156.464 79 156.464V151.464ZM143.139 109.146C145.721 103.201 147.125 96.812 147.125 90.1988H142.125C142.125 96.0945 140.875 101.808 138.553 107.155L143.139 109.146ZM147.125 90.1988C147.125 67.4067 130.537 47.5318 106.719 38.7663L104.992 43.4586C127.36 51.6905 142.125 70.0039 142.125 90.1988H147.125ZM104.832 43.3935C125.071 52.4719 138.974 71.4425 140.265 91.7474L145.255 91.43C143.833 69.0745 128.62 48.5838 106.878 38.8314L104.832 43.3935ZM140.265 91.7474C140.613 97.2067 139.964 102.474 138.455 107.421L143.237 108.88C144.92 103.362 145.641 97.4933 145.255 91.43L140.265 91.7474ZM84.0136 34.0822C82.3598 33.9838 80.688 33.9337 79 33.9337V38.9337C80.5891 38.9337 82.1619 38.9809 83.7168 39.0733L84.0136 34.0822ZM79 33.9337C41.1381 33.9337 10.875 59.3285 10.875 90.1988H15.875C15.875 62.9126 42.9978 38.9337 79 38.9337V33.9337ZM10.875 90.1988C10.875 96.9183 12.3249 103.406 14.9858 109.432L19.5597 107.413C17.1659 101.991 15.875 96.1891 15.875 90.1988H10.875ZM17.9399 110.832L78.7297 93.998L77.3953 89.1794L16.6056 106.013L17.9399 110.832ZM80.5487 91.851L86.3514 36.84L81.379 36.3155L75.5763 91.3265L80.5487 91.851Z" fill="black"/>
</svg>
