<svg width="150" height="150" viewBox="0 0 150 150" fill="none" xmlns="http://www.w3.org/2000/svg">
<path fill-rule="evenodd" clip-rule="evenodd" d="M57.1169 1.25545C56.4088 1.94104 55.3706 6.49588 54.5177 12.6582C53.7368 18.3023 53.0303 22.9709 52.9493 23.0341C52.8674 23.0966 50.9391 24.0785 48.6642 25.2158C46.3893 26.3532 43.4113 27.9854 42.0464 28.8432C39.5647 30.4026 39.5647 30.4026 28.9877 26.3227C18.5431 22.2933 18.3909 22.262 16.8489 23.7926C14.1281 26.4949 0.271201 50.4994 0.271201 52.5097C0.271201 54.0026 2.19534 55.8952 8.80657 60.9082C17.3419 67.3788 17.3419 67.3788 17.3419 75.0036C17.3419 82.6284 17.3419 82.6284 9.1722 88.7651C4.67869 92.1401 0.659999 95.5224 0.240593 96.2801C-0.586638 97.7778 0.233149 99.4077 10.6116 116.901C13.7964 122.268 17.0152 126.853 17.7638 127.088C18.5133 127.324 23.7249 125.732 29.3451 123.552C39.5647 119.589 39.5647 119.589 42.0464 121.164C43.4113 122.03 46.4373 123.674 48.7701 124.818C53.0121 126.898 53.0121 126.898 54.4813 137.257C55.3532 143.408 56.4269 148.077 57.1227 148.751C58.8458 150.42 91.4304 150.414 93.1544 148.745C93.8625 148.06 94.9006 143.505 95.7535 137.343C96.5344 131.699 97.2409 127.03 97.3219 126.967C97.4038 126.904 99.3321 125.922 101.607 124.785C103.882 123.648 106.86 122.015 108.225 121.158C110.707 119.598 110.707 119.598 121.284 123.678C131.728 127.708 131.88 127.739 133.422 126.208C136.143 123.506 150 99.5014 150 97.4911C150 95.9982 148.076 94.1056 141.465 89.0926C132.929 82.622 132.929 82.622 132.929 75.0004C132.929 67.3788 132.929 67.3788 141.465 60.9082C148.076 55.8952 150 54.0026 150 52.5097C150 50.4994 136.143 26.4949 133.422 23.7926C131.88 22.262 131.728 22.2933 121.284 26.3227C110.707 30.4026 110.707 30.4026 108.225 28.8432C106.86 27.9854 103.882 26.3532 101.607 25.2158C99.3321 24.0785 97.4038 23.0966 97.3219 23.0341C97.2409 22.9709 96.5344 18.3023 95.7535 12.6582C94.9006 6.49588 93.8625 1.94104 93.1544 1.25545C91.4254 -0.418482 58.8458 -0.418482 57.1169 1.25545ZM87.9536 51.8489C100.748 58.5911 105.896 73.8318 99.577 86.2598C94.7311 95.7907 85.9665 101.119 75.1356 101.119C70.2458 101.119 67.8973 100.689 64.4569 99.1642C47.1917 91.5114 42.57 70.7083 55.1431 57.2343C63.24 48.5563 77.3203 46.2457 87.9536 51.8489Z" fill="black"/>
</svg>
