<svg width="151" height="150" viewBox="0 0 151 150" fill="none" xmlns="http://www.w3.org/2000/svg">
<mask id="path-1-inside-1_1_13" fill="white">
<path fill-rule="evenodd" clip-rule="evenodd" d="M54.4533 0C50.315 0 46.9601 3.31068 46.9601 7.39463C46.9601 11.4785 50.315 14.7893 54.4533 14.7893H67.9412V21.9815C47.0524 23.8784 28.7063 33.1258 16.5279 46.6605L15.9881 46.3397L16.4375 46.7611C6.75561 57.5651 0.997116 71.0876 0.997116 85.7777C0.997116 121.262 34.5979 149.935 75.9339 149.935C117.27 149.935 150.871 121.262 150.871 85.7777C150.871 68.695 143.084 53.1912 130.395 41.7051L137.653 33.1692L126.173 23.6628L118.341 32.8738C108.347 26.9918 96.6051 23.1328 83.9267 21.9815V14.7893H98.4136C102.552 14.7893 105.907 11.4785 105.907 7.39463C105.907 3.31068 102.552 0 98.4136 0H54.4533ZM23.756 53.6242C15.6659 62.7894 10.9971 74.0297 10.9971 85.7777C10.9971 114.358 38.6298 139.935 75.9339 139.935C113.238 139.935 140.871 114.358 140.871 85.7777C140.871 57.197 113.238 31.6207 75.9339 31.6207C54.9399 31.6207 37.0089 39.7213 25.3427 51.8991L79.0337 83.8077C83.2409 86.3081 83.8937 91.4474 80.4199 94.7581C77.016 98.0022 71.1431 98.0624 67.7578 94.8878L23.756 53.6242Z"/>
</mask>
<path fill-rule="evenodd" clip-rule="evenodd" d="M54.4533 0C50.315 0 46.9601 3.31068 46.9601 7.39463C46.9601 11.4785 50.315 14.7893 54.4533 14.7893H67.9412V21.9815C47.0524 23.8784 28.7063 33.1258 16.5279 46.6605L15.9881 46.3397L16.4375 46.7611C6.75561 57.5651 0.997116 71.0876 0.997116 85.7777C0.997116 121.262 34.5979 149.935 75.9339 149.935C117.27 149.935 150.871 121.262 150.871 85.7777C150.871 68.695 143.084 53.1912 130.395 41.7051L137.653 33.1692L126.173 23.6628L118.341 32.8738C108.347 26.9918 96.6051 23.1328 83.9267 21.9815V14.7893H98.4136C102.552 14.7893 105.907 11.4785 105.907 7.39463C105.907 3.31068 102.552 0 98.4136 0H54.4533ZM23.756 53.6242C15.6659 62.7894 10.9971 74.0297 10.9971 85.7777C10.9971 114.358 38.6298 139.935 75.9339 139.935C113.238 139.935 140.871 114.358 140.871 85.7777C140.871 57.197 113.238 31.6207 75.9339 31.6207C54.9399 31.6207 37.0089 39.7213 25.3427 51.8991L79.0337 83.8077C83.2409 86.3081 83.8937 91.4474 80.4199 94.7581C77.016 98.0022 71.1431 98.0624 67.7578 94.8878L23.756 53.6242Z" fill="black"/>
<path d="M67.9412 14.7893H68.9412C68.9412 14.237 68.4935 13.7893 67.9412 13.7893V14.7893ZM67.9412 21.9815L68.0316 22.9774C68.5467 22.9306 68.9412 22.4987 68.9412 21.9815H67.9412ZM16.5279 46.6605L16.017 47.5201C16.427 47.7638 16.9522 47.684 17.2712 47.3294L16.5279 46.6605ZM15.9881 46.3397L16.499 45.48C16.0603 45.2193 15.4956 45.3308 15.1888 45.7387C14.8821 46.1466 14.9318 46.72 15.304 47.0691L15.9881 46.3397ZM16.4375 46.7611L17.1822 47.4285C17.5449 47.0238 17.518 46.4034 17.1215 46.0317L16.4375 46.7611ZM130.395 41.7051L129.634 41.0573C129.284 41.4689 129.324 42.0839 129.724 42.4465L130.395 41.7051ZM137.653 33.1692L138.415 33.817C138.589 33.6132 138.673 33.3485 138.65 33.082C138.626 32.8156 138.497 32.5696 138.291 32.399L137.653 33.1692ZM126.173 23.6628L126.811 22.8926C126.39 22.5436 125.766 22.5982 125.411 23.015L126.173 23.6628ZM118.341 32.8738L117.834 33.7356C118.253 33.9821 118.788 33.8918 119.103 33.5216L118.341 32.8738ZM83.9267 21.9815H82.9267C82.9267 22.4987 83.3212 22.9306 83.8363 22.9774L83.9267 21.9815ZM83.9267 14.7893V13.7893C83.3744 13.7893 82.9267 14.237 82.9267 14.7893H83.9267ZM23.756 53.6242L24.4401 52.8948C24.2428 52.7098 23.979 52.6126 23.7089 52.6254C23.4388 52.6381 23.1853 52.7597 23.0063 52.9625L23.756 53.6242ZM25.3427 51.8991L24.6206 51.2074C24.4097 51.4276 24.3107 51.7319 24.3519 52.0341C24.393 52.3362 24.5697 52.603 24.8318 52.7588L25.3427 51.8991ZM79.0337 83.8077L79.5446 82.948L79.5446 82.948L79.0337 83.8077ZM80.4199 94.7581L79.73 94.0342L79.73 94.0342L80.4199 94.7581ZM67.7578 94.8878L67.0738 95.6172L67.0738 95.6172L67.7578 94.8878ZM47.9601 7.39463C47.9601 3.87542 50.8547 1 54.4533 1V-1C49.7752 -1 45.9601 2.74595 45.9601 7.39463H47.9601ZM54.4533 13.7893C50.8547 13.7893 47.9601 10.9138 47.9601 7.39463H45.9601C45.9601 12.0433 49.7752 15.7893 54.4533 15.7893V13.7893ZM67.9412 13.7893H54.4533V15.7893H67.9412V13.7893ZM68.9412 21.9815V14.7893H66.9412V21.9815H68.9412ZM17.2712 47.3294C29.2701 33.9943 47.377 24.853 68.0316 22.9774L67.8507 20.9856C46.7278 22.9037 28.1426 32.2573 15.7845 45.9916L17.2712 47.3294ZM15.4772 47.1993L16.017 47.5201L17.0387 45.8008L16.499 45.48L15.4772 47.1993ZM17.1215 46.0317L16.6721 45.6102L15.304 47.0691L15.7534 47.4906L17.1215 46.0317ZM1.99712 85.7777C1.99712 71.3593 7.64699 58.0689 17.1822 47.4285L15.6928 46.0937C5.86423 57.0614 -0.00288391 70.816 -0.00288391 85.7777H1.99712ZM75.9339 148.935C34.9979 148.935 1.99712 120.569 1.99712 85.7777H-0.00288391C-0.00288391 121.956 34.198 150.935 75.9339 150.935V148.935ZM149.871 85.7777C149.871 120.569 116.87 148.935 75.9339 148.935V150.935C117.67 150.935 151.871 121.956 151.871 85.7777H149.871ZM129.724 42.4465C142.232 53.7686 149.871 69.0135 149.871 85.7777H151.871C151.871 68.3765 143.936 52.6139 131.067 40.9637L129.724 42.4465ZM136.892 32.5214L129.634 41.0573L131.157 42.3529L138.415 33.817L136.892 32.5214ZM125.535 24.433L137.016 33.9394L138.291 32.399L126.811 22.8926L125.535 24.433ZM119.103 33.5216L126.935 24.3106L125.411 23.015L117.579 32.226L119.103 33.5216ZM83.8363 22.9774C96.3702 24.1155 107.969 27.9299 117.834 33.7356L118.848 32.012C108.724 26.0538 96.8401 22.15 84.0172 20.9856L83.8363 22.9774ZM82.9267 14.7893V21.9815H84.9267V14.7893H82.9267ZM98.4136 13.7893H83.9267V15.7893H98.4136V13.7893ZM104.907 7.39463C104.907 10.9138 102.012 13.7893 98.4136 13.7893V15.7893C103.092 15.7893 106.907 12.0433 106.907 7.39463H104.907ZM98.4136 1C102.012 1 104.907 3.87543 104.907 7.39463H106.907C106.907 2.74594 103.092 -1 98.4136 -1V1ZM54.4533 1H98.4136V-1H54.4533V1ZM11.9971 85.7777C11.9971 74.3016 16.5572 63.2907 24.5057 54.286L23.0063 52.9625C14.7746 62.288 9.99712 73.7578 9.99712 85.7777H11.9971ZM75.9339 138.935C39.0368 138.935 11.9971 113.671 11.9971 85.7777H9.99712C9.99712 115.045 38.2228 140.935 75.9339 140.935V138.935ZM139.871 85.7777C139.871 113.671 112.831 138.935 75.9339 138.935V140.935C113.645 140.935 141.871 115.045 141.871 85.7777H139.871ZM75.9339 32.6207C112.831 32.6207 139.871 57.8842 139.871 85.7777H141.871C141.871 56.5098 113.645 30.6207 75.9339 30.6207V32.6207ZM26.0648 52.5909C37.5318 40.6211 55.1967 32.6207 75.9339 32.6207V30.6207C54.683 30.6207 36.4861 38.8215 24.6206 51.2074L26.0648 52.5909ZM24.8318 52.7588L78.5229 84.6673L79.5446 82.948L25.8536 51.0395L24.8318 52.7588ZM78.5229 84.6673C80.38 85.7711 81.4016 87.4199 81.6151 89.1047C81.8282 90.7867 81.2474 92.588 79.73 94.0342L81.1098 95.482C83.0661 93.6175 83.8958 91.1938 83.5992 88.8533C83.303 86.5157 81.8947 84.3447 79.5446 82.948L78.5229 84.6673ZM79.73 94.0342C76.7018 96.9202 71.4319 96.9623 68.4419 94.1584L67.0738 95.6172C70.8543 99.1625 77.3301 99.0842 81.1098 95.4819L79.73 94.0342ZM68.4419 94.1584L24.4401 52.8948L23.072 54.3537L67.0738 95.6172L68.4419 94.1584Z" fill="black" mask="url(#path-1-inside-1_1_13)"/>
</svg>
