<svg width="158" height="158" viewBox="0 0 158 158" fill="none" xmlns="http://www.w3.org/2000/svg">
<g filter="url(#filter0_d_0_16)">
<path fill-rule="evenodd" clip-rule="evenodd" d="M72 4.5C72 2.01472 74.0147 0 76.5 0C78.9853 0 81 2.01472 81 4.5V31.5C81 33.9853 78.9853 36 76.5 36C74.0147 36 72 33.9853 72 31.5V4.5ZM106 75C106 90.464 93.464 103 78 103C62.536 103 50 90.464 50 75C50 59.536 62.536 47 78 47C93.464 47 106 59.536 106 75ZM76.5 114C74.0147 114 72 116.015 72 118.5V145.5C72 147.985 74.0147 150 76.5 150C78.9853 150 81 147.985 81 145.5V118.5C81 116.015 78.9853 114 76.5 114ZM44.9718 106.167C46.6555 104.339 49.3854 104.339 51.0691 106.167C52.7528 107.995 52.7528 110.959 51.0691 112.787L32.8828 132.532C31.1991 134.36 28.4693 134.36 26.7856 132.532C25.1018 130.704 25.1018 127.74 26.7856 125.912L44.9718 106.167ZM128.437 24.7385C126.754 22.9105 124.024 22.9105 122.34 24.7385L104.154 44.4836C102.47 46.3116 102.47 49.2755 104.154 51.1035C105.838 52.9315 108.567 52.9315 110.251 51.1035L128.437 31.3584C130.121 29.5304 130.121 26.5666 128.437 24.7385ZM104.154 108.622C102.47 106.794 102.47 103.83 104.154 102.002C105.838 100.174 108.567 100.174 110.251 102.002L128.437 121.747C130.121 123.575 130.121 126.539 128.437 128.367C126.754 130.195 124.024 130.195 122.34 128.367L104.154 108.622ZM24.0223 23.5734C22.3386 25.4015 22.3386 28.3653 24.0223 30.1933L42.2086 49.9384C43.8923 51.7665 46.6221 51.7665 48.3059 49.9384C49.9896 48.1104 49.9896 45.1465 48.3059 43.3185L30.1196 23.5734C28.4359 21.7454 25.7061 21.7454 24.0223 23.5734ZM8.5 83C6.01472 83 4 80.9853 4 78.5C4 76.0147 6.01472 74 8.5 74H34.5C36.9853 74 39 76.0147 39 78.5C39 80.9853 36.9853 83 34.5 83H8.5ZM118 78.5C118 80.9853 120.015 83 122.5 83H149.5C151.985 83 154 80.9853 154 78.5C154 76.0147 151.985 74 149.5 74H122.5C120.015 74 118 76.0147 118 78.5Z" fill="black"/>
</g>
<defs>
<filter id="filter0_d_0_16" x="0" y="0" width="158" height="158" filterUnits="userSpaceOnUse" color-interpolation-filters="sRGB">
<feFlood flood-opacity="0" result="BackgroundImageFix"/>
<feColorMatrix in="SourceAlpha" type="matrix" values="0 0 0 0 0 0 0 0 0 0 0 0 0 0 0 0 0 0 127 0" result="hardAlpha"/>
<feOffset dy="4"/>
<feGaussianBlur stdDeviation="2"/>
<feComposite in2="hardAlpha" operator="out"/>
<feColorMatrix type="matrix" values="0 0 0 0 0 0 0 0 0 0 0 0 0 0 0 0 0 0 0.25 0"/>
<feBlend mode="normal" in2="BackgroundImageFix" result="effect1_dropShadow_0_16"/>
<feBlend mode="normal" in="SourceGraphic" in2="effect1_dropShadow_0_16" result="shape"/>
</filter>
</defs>
</svg>
