<svg width="150" height="150" viewBox="0 0 150 150" fill="none" xmlns="http://www.w3.org/2000/svg">
<path fill-rule="evenodd" clip-rule="evenodd" d="M12.3737 57.533C10.8268 63.091 10 68.9489 10 75C10 110.899 39.1015 140 75 140C110.899 140 140 110.899 140 75C140 55.3516 131.282 37.7394 117.503 25.8205L100.7 52.9579C95.1554 61.9128 89.6097 70.8694 83.1736 81.2642C83.0597 82.3295 82.7124 83.4137 82.1072 84.462C79.4919 88.9919 73.2368 90.7991 68.7195 88.33L12.3737 57.533ZM12.4033 57.427L73.7707 72.3735L115.758 24.3636C104.61 15.3786 90.4331 10 75 10C45.1911 10 20.0687 30.0658 12.4033 57.427ZM150 75C150 51.7558 139.426 30.9813 122.826 17.2244L124.822 14L122.346 16.8307C109.435 6.30885 92.9543 0 75 0C33.5786 0 0 33.5786 0 75C0 116.421 33.5786 150 75 150C116.421 150 150 116.421 150 75Z" fill="black"/>
</svg>
