<svg width="51" height="50" viewBox="0 0 51 50" fill="none" xmlns="http://www.w3.org/2000/svg">
<path fill-rule="evenodd" clip-rule="evenodd" d="M0 25V16.7521H8.83685L26.7853 0V50L9.20506 33.5915H0V25ZM32.7674 6.55451C32.7679 6.55482 32.7684 6.55516 34.1439 4.46759C35.5194 2.38002 35.52 2.38044 35.5207 2.38089L35.5224 2.38197L35.5266 2.38477L35.5389 2.39296L35.5787 2.41956C35.6118 2.44182 35.6581 2.4731 35.7165 2.51318C35.8334 2.59332 35.9992 2.70874 36.2071 2.85768C36.6226 3.15538 37.2074 3.58809 37.9052 4.14173C39.297 5.24587 41.1586 6.84699 43.0284 8.83309C46.6782 12.7099 50.7724 18.4893 50.7724 25.1726C50.7724 31.8613 46.6729 37.5997 43.0186 41.4371C41.1469 43.4026 39.2835 44.9827 37.8906 46.071C37.1921 46.6167 36.6067 47.0427 36.1907 47.3358C35.9826 47.4824 35.8165 47.596 35.6994 47.6748C35.6409 47.7143 35.5945 47.7451 35.5613 47.767L35.5213 47.7932L35.5089 47.8013L35.5047 47.8041L35.503 47.8052C35.5023 47.8056 35.5017 47.806 34.1439 45.7069C32.7861 43.6077 32.7856 43.6081 32.7851 43.6084L32.7869 43.6072L32.8076 43.5936C32.8278 43.5803 32.8608 43.5584 32.9057 43.5281C32.9956 43.4676 33.133 43.3737 33.3112 43.2481C33.6679 42.9969 34.1863 42.62 34.8124 42.1309C36.0685 41.1495 37.7373 39.7327 39.3977 37.9891C42.8076 34.4083 45.7724 29.8795 45.7724 25.1726C45.7724 20.4603 42.8024 15.8873 39.3879 12.2604C37.7256 10.4947 36.055 9.05626 34.7977 8.05877C34.171 7.56159 33.652 7.17797 33.2949 6.92204C33.1164 6.79417 32.9787 6.69846 32.8886 6.63667C32.8436 6.60578 32.8105 6.58339 32.7901 6.56972L32.7693 6.55581L32.7674 6.55451ZM28.3094 9.30232C26.9687 11.4124 26.9681 11.4121 26.9676 11.4118L26.9815 11.4207C26.9959 11.4301 27.0202 11.4459 27.0538 11.4681C27.1209 11.5125 27.2249 11.5822 27.3604 11.6758C27.6318 11.8633 28.028 12.1457 28.5074 12.5124C29.4702 13.249 30.7471 14.3095 32.015 15.6082C34.6514 18.3085 36.7982 21.5775 36.7982 24.8311C36.7982 28.0791 34.657 31.3147 32.025 33.9798C30.759 35.2618 29.4838 36.306 28.5221 37.0305C28.0433 37.3912 27.6477 37.6686 27.3768 37.8526C27.2415 37.9445 27.1378 38.0128 27.0708 38.0563C27.0374 38.078 27.0132 38.0935 26.9988 38.1026L26.9853 38.1112C26.9858 38.1109 26.9863 38.1106 28.3094 40.2318C29.6324 42.353 29.633 42.3526 29.6337 42.3522L29.6353 42.3512L29.6391 42.3488L29.6498 42.3421L29.6829 42.3211C29.7102 42.3038 29.7477 42.2797 29.7947 42.2492C29.8888 42.1881 30.0211 42.1008 30.1863 41.9886C30.5164 41.7644 30.9792 41.4395 31.5307 41.0241C32.6293 40.1964 34.1014 38.993 35.5826 37.4931C38.445 34.5946 41.7982 30.1298 41.7982 24.8311C41.7982 19.538 38.4506 15.0426 35.5926 12.1152C34.1133 10.6 32.6429 9.38084 31.5454 8.54121C30.9945 8.11981 30.5323 7.78997 30.2027 7.56222C30.0377 7.44826 29.9056 7.3596 29.8118 7.29755C29.7649 7.26652 29.7275 7.24212 29.7003 7.22452L29.6673 7.20322L29.6567 7.19643L29.6529 7.19401L29.6514 7.19304C29.6507 7.19262 29.6501 7.19223 28.3094 9.30232Z" fill="black"/>
</svg>
